<svg viewBox="0 0 64 64" xmlns="http://www.w3.org/2000/svg">
  <rect width="64" height="64" rx="14" fill="#0a1428" />
  <g fill="#ffffff" transform="translate(4 3)">
    <path d="M24 7.5l1.9 4.3 4.1-2-1.2 4.4 4.6.2-3 3.4 4.2 2.4-4.6 1.1 2.4 4-4.4-1.1 0.3 4.6-3-3.2-3 3.2 0.3-4.6-4.4 1.1 2.4-4-4.6-1.1 4.2-2.4-3-3.4 4.6-.2-1.2-4.4 4.1 2z" />
    <path d="M23 36c.2 7 2.5 12.6 9.5 15.9-5-2.3-7.5-6.9-7.3-14.9z" />
    <rect x="37.3" y="41.8" width="3.6" height="9" rx="1.6" />
    <rect x="34.6" y="44.5" width="9" height="3.6" rx="1.6" />
  </g>
</svg>
